<svg xmlns="http://www.w3.org/2000/svg" width="749" height="521" viewBox="0 0 749 521">
    <g fill="none" fill-rule="evenodd">
        <path fill="#000" d="M316.448 284.153c0 33.142-16.926 60.008-37.806 60.008s-37.806-26.866-37.806-60.008 16.926-60.008 37.806-60.008 37.806 26.866 37.806 60.008"/>
        <path stroke="#000" stroke-width="5" d="M471.009 287.71c0 91.567-55.094 165.798-123.053 165.798-67.96 0-123.052-74.231-123.052-165.797 0-91.567 55.093-165.796 123.053-165.796 67.959 0 123.052 74.229 123.052 165.796z"/>
        <path fill="#000" d="M591.324 284.153c0 33.142-16.927 60.008-37.806 60.008-20.88 0-37.805-26.866-37.805-60.008s16.925-60.008 37.805-60.008c20.879 0 37.806 26.866 37.806 60.008"/>
        <path stroke="#000" stroke-width="5" d="M745.883 287.71c0 91.567-55.092 165.798-123.052 165.798-67.96 0-123.052-74.231-123.052-165.797 0-91.567 55.092-165.796 123.052-165.796 67.96 0 123.052 74.229 123.052 165.796zM359.834 519.668L571.634.945M7.389 216.574c2.446-15.412 7.88-30.423 16.09-43.705 4.947-8.002 10.9-15.376 17.812-21.833a111.219 111.219 0 0 1 20.263-14.996c14.706-8.47 31.633-13.232 48.989-13.36 7.34-.053 15.644.64 22.755 2.222a97.653 97.653 0 0 1 27.008 10.425c8.259 4.713 15.456 10.808 21.428 17.356 8.133 8.916 14.793 20.05 18.78 31.408 4.629 13.186 5.478 27.97 3.778 42.417-1.727 14.678-6.371 28.991-13.707 41.553-15.171 25.978-39.158 48.458-62.925 67.673-12.175 9.844-26.408 20.376-38.525 29.345-40.62 30.065-82.71 56.368-86.271 82.508l217.498-.1"/>
    </g>
</svg>
