<svg xmlns="http://www.w3.org/2000/svg" width="87" height="56" viewBox="0 0 87 56">
    <g fill="none" fill-rule="evenodd">
        <path fill="#000" d="M82.622 30.305c0 4.033-1.93 7.303-4.31 7.303-2.382 0-4.312-3.27-4.312-7.303C74 26.27 75.93 23 78.312 23c2.38 0 4.31 3.271 4.31 7.305M51.622 30.305c0 4.033-1.93 7.303-4.31 7.303-2.382 0-4.312-3.27-4.312-7.303C43 26.27 44.93 23 47.312 23c2.38 0 4.31 3.271 4.31 7.305"/>
        <path stroke="#000" stroke-width="3" d="M41.045 13.337c-7.104 0-12.864 7.802-12.864 17.427s5.76 17.427 12.864 17.427c1.567 0 3.062-.4 4.452-1.094l8.068-20.28c-1.322-7.72-6.42-13.48-12.52-13.48zM84.829 30.764c0 9.624-5.76 17.427-12.864 17.427-7.105 0-12.864-7.803-12.864-17.427 0-9.624 5.759-17.427 12.864-17.427 7.104 0 12.864 7.803 12.864 17.427zM3.257 23.287c.256-1.62.824-3.198 1.683-4.594a11.127 11.127 0 0 1 1.861-2.295 11.606 11.606 0 0 1 2.119-1.575 10.398 10.398 0 0 1 5.122-1.405c.767-.005 1.635.067 2.379.234.989.22 1.952.596 2.823 1.096a9.319 9.319 0 0 1 2.24 1.824 9.85 9.85 0 0 1 1.963 3.3c.484 1.387.572 2.941.396 4.46a11.353 11.353 0 0 1-1.434 4.366c-1.586 2.731-4.094 5.094-6.578 7.114-1.272 1.035-2.761 2.142-4.028 3.084-4.246 3.16-8.646 5.925-9.018 8.672l22.737-.01M42.287 55.145L64.428.623"/>
    </g>
</svg>
